# File created by Blade
# Date/Time:  Tue Sep 30 19:11:10 2014
#---------------------------------------------------------
:version 1.10
:name HOM
:units
  mass 1.0
  length 1.000000
  angle deg
:documentation
     Acclaim Skeleton File
:root
   axis xyz
   order TX TY TZ RX RY RZ
   position 0.000000 0.000000 0.000000
   orientation 0 0 0
:bonedata
   begin
      id 1
      name Spine_dum
      direction 0.000000 1.000000 0.000000
      length 7.508948
      axis 0.0 0.0 0.0 xyz
   end
   begin
      id 2
      name LeftUpLeg_dum
      direction 1.000000 0.000000 0.000000
      length 3.000560
      axis 0.0 0.0 0.0 xyz
   end
   begin
      id 3
      name RightUpLeg_dum
      direction -1.000000 0.000000 0.000000
      length 3.000560
      axis 0.0 0.0 0.0 xyz
   end
   begin
      id 4
      name Spine
      direction 0.000000 1.000000 0.000000
      length 0.000000
      axis 0.0 0.0 0.0 xyz
      dof rx ry rz
   end
   begin
      id 5
      name Spine_dum1
      direction 0.000000 1.000000 0.000000
      length 13.861154
      axis 0.0 0.0 0.0 xyz
   end
   begin
      id 6
      name Spine_dum2
      direction 0.000000 1.000000 0.000000
      length 8.204781
      axis 0.0 0.0 0.0 xyz
   end
   begin
      id 7
      name Spine_dum3
      direction 0.000000 1.000000 0.000000
      length 8.204781
      axis 0.0 0.0 0.0 xyz
   end
   begin
      id 8
      name Head
      direction 0.000000 1.000000 0.000000
      length 4.527550
      axis 0.0 0.0 0.0 xyz
      dof rx ry rz
   end
   begin
      id 9
      name LeftShoulder
      direction 1.000000 0.000000 0.000000
      length 6.635956
      axis 0.0 0.0 -90.0 xyz
      dof rx ry rz
   end
   begin
      id 10
      name LeftArm
      direction 1.000000 0.000000 0.000000
      length 10.274218
      axis 0.0 0.0 -90.0 xyz
      dof rx ry rz
   end
   begin
      id 11
      name LeftForeArm
      direction 1.000000 0.000000 0.000000
      length 8.522147
      axis 0.0 0.0 -90.0 xyz
      dof ry rz rx
   end
   begin
      id 12
      name LeftHand
      direction 0.000000 0.000000 0.000000
      length 0.000000
      axis 0.0 0.0 -90.0 xyz
      dof rx ry rz
   end
   begin
      id 13
      name LeftHand_dum1
      direction 0.000000 0.000000 0.000000
      length 0.000000
      axis 0.0 0.0 -90.0 xyz
   end
   begin
      id 14
      name LeftHand_dum2
      direction 1.000000 0.000000 0.000000
      length 3.937000
      axis 0.0 0.0 -90.0 xyz
   end
   begin
      id 15
      name LeftHandThumb1
      direction 0.000000 0.000000 1.000000
      length 3.937000
      axis 0.0 0.0 -90.0 xyz
      dof rx rz ry
   end
   begin
      id 16
      name RightShoulder
      direction -1.000000 0.000000 0.000000
      length 6.635956
      axis 0.0 0.0 90.0 xyz
      dof rx ry rz
   end
   begin
      id 17
      name RightArm
      direction -1.000000 0.000000 0.000000
      length 10.274218
      axis 0.0 0.0 90.0 xyz
      dof rx ry rz
   end
   begin
      id 18
      name RightForeArm
      direction -1.000000 0.000000 0.000000
      length 8.522147
      axis 0.0 0.0 90.0 xyz
      dof ry rz rx
   end
   begin
      id 19
      name RightHand
      direction 0.000000 0.000000 0.000000
      length 0.000000
      axis 0.0 0.0 90.0 xyz
      dof rx ry rz
   end
   begin
      id 20
      name RightHand_dum1
      direction 0.000000 0.000000 0.000000
      length 0.000000
      axis 0.0 0.0 90.0 xyz
   end
   begin
      id 21
      name RightHand_dum2
      direction -1.000000 0.000000 0.000000
      length 3.937000
      axis 0.0 0.0 90.0 xyz
   end
   begin
      id 22
      name RightHandThumb1
      direction 0.000000 0.000000 1.000000
      length 3.937000
      axis 0.0 0.0 90.0 xyz
      dof rx rz ry
   end
   begin
      id 23
      name LeftUpLeg
      direction 0.000000 -1.000000 0.000000
      length 16.490845
      axis 0.0 0.0 0.0 xyz
      dof rx ry rz
   end
   begin
      id 24
      name LeftLeg
      direction 0.000000 -1.000000 0.000000
      length 14.556576
      axis 0.0 0.0 0.0 xyz
      dof rx ry rz
   end
   begin
      id 25
      name LeftFoot
      direction 0.000000 -0.258819 0.965926
      length 4.831116
      axis 15.0 0.0 0.0 xyz
      dof rx ry rz
   end
   begin
      id 26
      name LeftToeBase
      direction 0.000000 0.000000 1.000000
      length 2.952750
      axis 0.0 0.0 0.0 xyz
      dof rx ry rz
   end
   begin
      id 27
      name RightUpLeg
      direction 0.000000 -1.000000 0.000000
      length 16.490845
      axis 0.0 0.0 0.0 xyz
      dof rx ry rz
   end
   begin
      id 28
      name RightLeg
      direction 0.000000 -1.000000 0.000000
      length 14.556576
      axis 0.0 0.0 0.0 xyz
      dof rx ry rz
   end
   begin
      id 29
      name RightFoot
      direction 0.000000 -0.258819 0.965926
      length 4.831116
      axis 15.0 0.0 0.0 xyz
      dof rx ry rz
   end
   begin
      id 30
      name RightToeBase
      direction 0.000000 0.000000 1.000000
      length 2.952750
      axis 0.0 0.0 0.0 xyz
      dof rx ry rz
   end
:hierarchy
   begin
      root Spine_dum LeftUpLeg_dum RightUpLeg_dum
      Spine_dum Spine
      LeftUpLeg_dum LeftUpLeg
      RightUpLeg_dum RightUpLeg
      Spine Spine_dum1 Spine_dum2 Spine_dum3
      Spine_dum1 Head
      Spine_dum2 LeftShoulder
      Spine_dum3 RightShoulder
      LeftShoulder LeftArm
      LeftArm LeftForeArm
      LeftForeArm LeftHand
      LeftHand LeftHand_dum1 LeftHand_dum2
      LeftHand_dum1 LeftHandThumb1
      RightShoulder RightArm
      RightArm RightForeArm
      RightForeArm RightHand
      RightHand RightHand_dum1 RightHand_dum2
      RightHand_dum1 RightHandThumb1
      LeftUpLeg LeftLeg
      LeftLeg LeftFoot
      LeftFoot LeftToeBase
      RightUpLeg RightLeg
      RightLeg RightFoot
      RightFoot RightToeBase
   end

# File created by Blade
# Date/Time:  Wed Sep 24 20:26:02 2014
# Frame Rate: 120.000 fps
#------------------------------------------------------
:FULLY-SPECIFIED
:DEGREES
124
root -8.658577 32.706829 -3.338851 18.453902 -78.414625 -7.276667
Spine -12.745599 4.536052 -0.374919
Head -3.884604 -5.587520 10.563864
LeftShoulder -16.122180 18.663502 24.049398
LeftArm 18.952403 -26.458111 -34.774091
LeftForeArm 7.590016 -0.000000 13.712574
LeftHand -28.907101 -0.000000 1.263664
LeftHandThumb1 -26.253704 0.000000 33.147579
RightShoulder -20.196763 12.847774 -37.818683
RightArm -17.502659 9.773054 34.445630
RightForeArm -29.049258 -0.000000 18.311563
RightHand -13.764717 -0.000000 -0.159739
RightHandThumb1 -24.326973 -0.000000 -32.862282
LeftUpLeg -6.978329 3.117609 1.607079
LeftLeg -1.890576 -0.000000 0.000000
LeftFoot -9.276018 2.993052 -15.997819
LeftToeBase 7.109822 -0.000000 -0.000000
RightUpLeg -5.865131 -8.743962 -1.756244
RightLeg 1.953865 -0.000000 -0.000000
RightFoot -10.649519 -7.631673 -1.375014
RightToeBase -0.406906 -0.000000 0.000000
125
root -8.651804 32.706990 -3.325827 18.406825 -78.442499 -7.223153
Spine -12.742416 4.545869 -0.390347
Head -3.833801 -5.608280 10.555720
LeftShoulder -16.094254 18.643343 24.018375
LeftArm 18.876569 -26.409897 -34.766604
LeftForeArm 7.535853 -0.000000 13.789359
LeftHand -29.002235 0.000000 1.330638
LeftHandThumb1 -26.253704 0.000000 33.147579
RightShoulder -20.204685 12.959854 -37.844883
RightArm -17.556725 9.751635 34.484443
RightForeArm -29.088207 -0.000000 18.302040
RightHand -13.676836 -0.000000 -0.315892
RightHandThumb1 -24.326973 -0.000000 -32.862282
LeftUpLeg -7.000033 3.142643 1.561628
LeftLeg -1.866019 -0.000000 0.000000
LeftFoot -9.274746 2.982500 -15.994488
LeftToeBase 7.073876 -0.000000 -0.000000
RightUpLeg -5.882188 -8.735070 -1.802859
RightLeg 1.959829 -0.000000 -0.000000
RightFoot -10.654629 -7.590879 -1.328264
RightToeBase -0.394880 -0.000000 0.000000
126
root -8.646246 32.706934 -3.314696 18.434952 -78.466017 -7.254095
Spine -12.735207 4.540978 -0.397098
Head -3.788010 -5.630768 10.584346
LeftShoulder -16.075623 18.673990 24.025510
LeftArm 18.872974 -26.499983 -34.904351
LeftForeArm 7.593835 -0.000000 13.865013
LeftHand -29.116803 0.000000 1.495349
LeftHandThumb1 -26.253704 0.000000 33.147579
RightShoulder -20.203447 12.999797 -37.803480
RightArm -17.539736 9.715651 34.541649
RightForeArm -29.051825 -0.000000 18.320152
RightHand -13.734656 -0.000000 -0.502121
RightHandThumb1 -24.326973 -0.000000 -32.862282
LeftUpLeg -7.018436 3.173003 1.537820
LeftLeg -1.828852 -0.000000 0.000000
LeftFoot -9.315604 2.968455 -15.919595
LeftToeBase 7.178415 -0.000000 -0.000000
RightUpLeg -5.890506 -8.738443 -1.828003
RightLeg 1.961775 -0.000000 -0.000000
RightFoot -10.648356 -7.528030 -1.262137
RightToeBase -0.398563 -0.000000 0.000000
127
root -8.639098 32.707151 -3.301234 18.379264 -78.475200 -7.177680
Spine -12.746208 4.532494 -0.409726
Head -3.765266 -5.655364 10.567790
LeftShoulder -16.050165 18.663556 23.974563
LeftArm 18.831252 -26.567285 -34.977987
LeftForeArm 7.683538 -0.000000 13.969556
LeftHand -29.210722 0.000000 1.686270
LeftHandThumb1 -26.253704 0.000000 33.147579
RightShoulder -20.175034 12.984327 -37.753529
RightArm -17.577143 9.696958 34.596570
RightForeArm -28.994827 -0.000000 18.429075
RightHand -13.817452 -0.000000 -0.553014
RightHandThumb1 -24.326973 -0.000000 -32.862282
LeftUpLeg -7.067449 3.147352 1.495404
LeftLeg -1.780837 -0.000000 0.000000
LeftFoot -9.333959 2.994886 -15.917618
LeftToeBase 7.170043 -0.000000 -0.000000
RightUpLeg -5.921868 -8.776976 -1.867832
RightLeg 1.945775 -0.000000 -0.000000
RightFoot -10.601165 -7.539764 -1.254168
RightToeBase -0.519671 -0.000000 0.000000
